<svg width="102" height="30" viewBox="0 0 102 30" fill="none" xmlns="http://www.w3.org/2000/svg">
<path d="M22.4758 20.5538H19.1578V12.4529L17.0342 20.6866H14.778L12.6544 12.4529V20.6866H10V9.26562H14.6452L16.2379 15.3745L17.8306 9.26562H22.4758V20.5538Z" fill="white"/>
<path d="M32.0317 20.5538H23.4048V9.13281H32.0317V11.7889H26.8556V13.5153H30.9699V16.0385H26.8556V17.8978H32.0317V20.5538Z" fill="white"/>
<path d="M32.8281 9.13281H37.0752C38.6679 9.13281 39.9951 9.39842 41.3223 10.5936C42.5168 11.7889 43.0477 13.2497 43.0477 14.9761C43.0477 16.4369 42.5168 18.0305 41.455 19.093C40.2605 20.2882 38.9333 20.6866 37.3407 20.6866H32.8281V9.13281ZM36.8098 18.0305C37.3407 18.0305 37.6061 18.0305 38.0043 17.7649C38.2697 17.6321 38.5352 17.3665 38.8006 16.9681C39.1988 16.3041 39.3315 15.5073 39.3315 14.7105C39.3315 13.9137 39.066 12.9841 38.6679 12.3201C38.137 11.656 37.6061 11.656 36.8098 11.656H36.4116V17.8978H36.8098V18.0305Z" fill="white"/>
<path d="M47.162 20.5538H43.5785V9.13281H47.162V20.5538Z" fill="white"/>
<path d="M54.3289 18.2962H51.2763L50.6127 20.5538H47.6929L51.2763 9.13281H54.9925L58.576 20.5538H54.9925L54.3289 18.2962ZM53.798 15.9057L52.869 12.5857L51.94 15.9057H53.798Z" fill="white"/>
<path d="M67.8665 16.4369C67.6011 19.093 65.743 20.8194 63.0885 20.8194C59.6378 20.8194 57.7797 18.2962 57.7797 15.1089C57.7797 11.7889 59.3723 9 62.9558 9C65.8757 9 67.6011 10.7264 67.7338 13.6481L64.4157 13.7809C64.4157 12.8513 64.0176 11.656 62.9558 11.656C61.3632 11.656 61.3632 14.0465 61.3632 15.1089C61.3632 16.3041 61.4959 18.1634 62.9558 18.1634C64.0176 18.1634 64.4158 17.2337 64.5485 16.3041L67.8665 16.4369Z" fill="white"/>
<path d="M79.2805 14.9761C79.2805 18.2961 77.2897 20.8194 73.8389 20.8194C70.3882 20.8194 68.3973 18.1633 68.3973 14.9761C68.3973 11.5232 70.3882 9 73.8389 9C77.2897 9 79.2805 11.5232 79.2805 14.9761ZM72.1136 14.9761C72.1136 16.0385 72.2463 18.1634 73.8389 18.1634C75.4316 18.1634 75.5643 16.0385 75.5643 14.9761C75.5643 13.9137 75.4316 11.656 73.8389 11.656C72.2463 11.5232 72.1136 13.7809 72.1136 14.9761Z" fill="white"/>
<path d="M92.2872 20.5538H88.9692V12.4529L86.8456 20.6866H84.5894L82.4658 12.4529V20.6866H79.8114V9.26562H84.4566L86.0493 15.3745L87.642 9.26562H92.2872V20.5538Z" fill="white"/>
</svg>
