<svg width="102" height="30" viewBox="0 0 102 30" fill="none" xmlns="http://www.w3.org/2000/svg">
<path d="M51.7546 14.4913C51.7546 16.749 50.9583 17.8114 49.2329 17.8114C47.5075 17.8114 46.7112 16.749 46.7112 14.4913V8.24963H44.455V14.7569C44.455 18.077 46.1803 19.9362 49.2329 19.9362C52.2855 19.9362 54.0109 18.077 54.0109 14.7569V8.24963H51.7546V14.4913V14.4913Z" fill="white"/>
<path d="M64.6286 13.8274C64.6286 16.6163 62.9032 17.8115 61.0451 17.8115C58.7889 17.8115 57.5944 15.8195 57.5944 13.8274C57.5944 11.1714 59.3198 9.84335 61.0451 9.84335C63.1687 9.84335 64.6286 11.5698 64.6286 13.8274ZM61.576 7.85132C59.9834 7.85132 58.6561 8.64814 57.7271 9.97616V8.24973H55.4708V24.7172H57.7271V18.0771C58.6561 19.4051 59.9834 20.0691 61.4433 20.0691C63.036 20.0691 64.4959 19.4051 65.4249 18.2099C66.354 17.1475 66.8849 15.5539 66.8849 13.9602C66.8849 12.3666 66.354 10.9058 65.4249 9.84335C64.4959 8.51533 63.036 7.85132 61.576 7.85132Z" fill="white"/>
<path d="M32.9081 8.38254C32.2445 7.98413 31.7137 7.85132 31.0501 7.85132C29.7228 7.85132 28.5284 8.64813 27.9975 9.84335V8.11692H25.7412V19.5379H27.9975V13.9602C27.9975 12.101 28.2629 10.109 30.5192 10.109C30.9173 10.109 31.1828 10.109 31.4482 10.2418L32.9081 8.38254Z" fill="white"/>
<path d="M22.1578 8.11692V9.97616C21.2287 8.64814 19.9015 7.85132 18.3089 7.85132C16.7162 7.85132 15.389 8.51534 14.4599 9.71056C13.5309 10.773 13 12.2338 13 13.8274C13 15.421 13.5309 17.0147 14.4599 18.0771C15.389 19.2723 16.8489 19.9363 18.4416 19.9363C19.9015 19.9363 21.2287 19.1395 22.1578 17.9443V19.6707C22.1578 21.6627 21.7596 23.6548 18.9725 23.6548C16.9816 23.6548 15.6544 22.4596 15.6544 20.6003V20.4675H13.5309V20.6003C13.5309 23.6548 15.7872 25.7796 18.9725 25.7796C23.8832 25.7796 24.5468 22.194 24.5468 19.0067V8.24973H22.1578V8.11692ZM18.707 17.8115C16.4508 17.8115 15.2563 15.8194 15.2563 13.8274C15.2563 11.1714 16.9816 9.84335 18.707 9.84335C20.8306 9.84335 22.2905 11.437 22.2905 13.8274C22.1578 16.6163 20.4324 17.8115 18.707 17.8115Z" fill="white"/>
<path d="M87.5894 12.7649C86.5277 13.1634 85.4659 13.429 84.6696 13.429C84.006 13.429 83.6078 13.2962 83.3423 12.8978C83.0769 12.4993 83.0769 11.9681 83.2096 11.1713L83.8732 8.24967C84.1387 6.78885 84.006 5.72643 83.4751 5.06242C82.9442 4.39841 82.1479 4.13279 81.0861 4.13279C79.8916 4.13279 78.8298 4.5312 77.768 5.46081C77.3699 4.664 76.4408 4.13279 75.2463 4.13279C74.1846 4.13279 73.2555 4.5312 72.3265 5.19521C71.9283 4.5312 70.8665 4 69.672 4C69.1412 4 68.4775 4.1328 67.9467 4.2656H67.8139L67.4158 6.39045L67.9467 6.12483C68.743 5.85922 69.4066 5.85922 69.672 6.12483C69.9375 6.39043 69.9375 6.78885 69.8048 7.32006L68.3448 13.5618H70.8665L71.9283 9.17928C72.4592 7.05445 73.3882 5.99204 74.7155 5.99204C75.1136 5.99204 75.3791 6.12484 75.5118 6.39045C75.7772 6.65605 75.7772 7.18726 75.6445 7.98407L74.3173 13.5618H76.839L78.0335 8.38248C78.2989 7.05446 79.4934 5.99204 80.6879 5.99204C81.0861 5.99204 81.3515 6.12484 81.4842 6.39045C81.7497 6.65605 81.7497 7.18726 81.617 7.98407L80.9534 11.1713C80.6879 12.4993 80.8206 13.5618 81.4842 14.2258C82.1479 15.0226 83.2096 15.421 84.5368 15.421C85.5986 15.421 86.7931 15.1554 87.9876 14.6242L88.1203 14.4914L88.6512 12.1009L87.5894 12.7649Z" fill="white"/>
<path d="M43.1278 11.437C42.8624 10.6402 42.4642 10.109 41.9333 9.57775C41.4024 9.04654 40.8715 8.64814 40.0752 8.38254C39.4116 8.11694 38.4826 7.98413 37.5535 7.98413C36.6245 7.98413 35.8281 8.11694 35.0318 8.38254C34.3682 8.64814 33.7046 9.04654 33.1737 9.57775C32.6428 10.109 32.2447 10.773 31.9792 11.437C31.7138 12.2338 31.5811 13.0306 31.5811 13.8274C31.5811 14.757 31.7138 15.5538 31.9792 16.3507C32.2447 17.1475 32.6428 17.6787 33.1737 18.2099C33.7046 18.7411 34.2355 19.1395 35.0318 19.4051C35.6954 19.6707 36.6245 19.8035 37.5535 19.8035C38.4826 19.8035 39.2789 19.6707 40.0752 19.4051C40.7388 19.1395 41.4024 18.7411 41.9333 18.2099C42.4642 17.6787 42.8624 17.0147 43.1278 16.3507C43.3932 15.5538 43.526 14.757 43.526 13.8274C43.526 13.0306 43.3932 12.101 43.1278 11.437ZM39.2789 17.6787C38.8807 17.9443 38.3498 18.0771 37.6862 18.0771C37.1553 18.0771 36.6245 17.9443 36.0936 17.6787C35.6954 17.4131 35.2973 17.1475 35.0318 16.749C34.7664 16.3506 34.5009 15.9522 34.3682 15.421C34.2355 14.8898 34.2355 14.3586 34.2355 13.8274C34.2355 13.2962 34.2355 12.765 34.3682 12.3666C34.5009 11.8354 34.7664 11.437 35.0318 11.0386C35.2973 10.6402 35.6954 10.3746 36.0936 10.109C36.4917 9.84335 37.0226 9.71056 37.6862 9.71056C38.2171 9.71056 38.748 9.84335 39.2789 10.109C39.6771 10.3746 40.0752 10.6402 40.3407 11.0386C40.6061 11.437 40.8715 11.8354 41.0043 12.3666C41.137 12.8978 41.137 13.429 41.137 13.8274C41.137 14.3586 41.137 14.8898 41.0043 15.421C40.8715 15.9522 40.6061 16.3506 40.3407 16.749C40.0752 17.1475 39.6771 17.5459 39.2789 17.6787Z" fill="white"/>
</svg>
