<svg width="102" height="30" viewBox="0 0 102 30" fill="none" xmlns="http://www.w3.org/2000/svg">
<path d="M30.5598 28.5604C30.4271 28.5604 30.1617 28.4276 29.8962 28.0292L29.2326 26.17H25.1183L24.4546 28.0292C24.3219 28.4276 24.0565 28.5604 23.791 28.5604C23.5256 28.5604 23.1274 28.2948 23.1274 27.8964C23.1274 27.7636 23.1274 27.6308 23.2602 27.498L26.4455 19.5299C26.7109 18.8658 26.9764 18.8658 27.2418 18.8658C27.5072 18.8658 27.7727 18.9986 28.0381 19.5299L31.2234 27.498C31.3562 27.6308 31.3562 27.7636 31.3562 27.8964C31.2235 28.2948 30.8253 28.5604 30.5598 28.5604ZM28.7017 24.8419L27.1091 20.5923L25.5164 24.8419H28.7017ZM38.2577 19.9283C38.3904 19.7955 38.3904 19.5299 38.3904 19.5299C38.3904 19.1314 38.125 18.8658 37.7268 18.8658C37.4613 18.8658 37.1959 18.9986 37.0632 19.397L34.276 26.7012L31.4889 19.397C31.3562 18.9986 31.0907 18.8658 30.8253 18.8658C30.4271 18.8658 30.1617 19.1314 30.1617 19.5299C30.1617 19.6627 30.1617 19.7955 30.2944 19.9283L33.347 27.7636C33.6124 28.4276 34.0106 28.5604 34.276 28.5604C34.5415 28.5604 34.9396 28.4276 35.2051 27.7636L38.2577 19.9283ZM44.761 24.0451C45.2919 24.0451 45.4247 23.6467 45.4247 23.5139C45.4247 23.3811 45.2919 22.9827 44.761 22.9827H40.7794V20.1939H45.0265C45.5574 20.1939 45.6901 19.7955 45.6901 19.6627C45.6901 19.5299 45.5574 19.1314 45.0265 19.1314H40.2485C39.7176 19.1314 39.4522 19.3971 39.4522 19.9283V27.8964C39.4522 28.4276 39.7176 28.6932 40.2485 28.6932H45.1592C45.6901 28.6932 45.8228 28.2948 45.8228 28.162C45.8228 28.0292 45.6901 27.6308 45.1592 27.6308H40.7794V24.4435H44.761V24.0451ZM65.8638 28.5604C65.731 28.5604 65.4656 28.4276 65.2001 28.0292L64.5365 26.17H60.4222L59.7586 28.0292C59.6258 28.4276 59.3604 28.5604 59.095 28.5604C58.8295 28.5604 58.4313 28.2948 58.4313 27.8964C58.4313 27.7636 58.4314 27.6308 58.5641 27.498L61.7494 19.5299C62.0148 18.8658 62.2803 18.8658 62.5457 18.8658C62.8112 18.8658 63.0766 18.9986 63.3421 19.5299L66.5274 27.498C66.6601 27.6308 66.6601 27.7636 66.6601 27.8964C66.5274 28.2948 66.2619 28.5604 65.8638 28.5604ZM64.1384 24.8419L62.5457 20.5923L60.953 24.8419H64.1384ZM56.706 28.5604C56.9714 28.5604 57.3696 28.4276 57.3696 27.7636V19.6627C57.3696 18.8659 56.8387 18.733 56.5733 18.733C56.3078 18.733 55.9096 18.8658 55.6442 19.5299L52.4589 26.7012L49.2736 19.5299C49.0081 18.8658 48.6099 18.733 48.3445 18.733C48.0791 18.733 47.5482 18.8659 47.5482 19.6627V27.7636C47.5482 28.4276 47.9463 28.4276 48.2118 28.4276C48.4772 28.4276 48.8754 28.2948 48.8754 27.7636V21.6547L51.6625 27.8964C51.928 28.4276 52.1934 28.5604 52.4589 28.5604C52.7243 28.5604 52.9898 28.4276 53.2552 27.8964L56.0424 21.5219V27.7636C56.0424 28.4276 56.4405 28.5604 56.706 28.5604ZM74.8888 27.8964C74.8888 27.7636 74.8888 27.498 74.6234 27.3652L70.509 23.3811L74.3579 20.0611C74.6234 19.7955 74.6234 19.6627 74.6234 19.5299C74.6234 19.1314 74.3579 18.9987 73.9598 18.9987C73.8271 18.9987 73.5616 19.1315 73.4289 19.2643L69.0491 23.2483V19.5299C69.0491 18.8658 68.6509 18.733 68.3855 18.733C68.12 18.733 67.7218 18.8658 67.7218 19.5299V27.7636C67.7218 28.4276 68.12 28.5604 68.3855 28.5604C68.6509 28.5604 69.0491 28.4276 69.0491 27.7636V23.5139L73.6943 28.2948C73.827 28.5604 74.0925 28.5604 74.2252 28.5604C74.6234 28.5604 74.8888 28.162 74.8888 27.8964ZM81.5249 24.0451C82.0558 24.0451 82.1885 23.6467 82.1885 23.5139C82.1885 23.3811 82.0558 22.9827 81.5249 22.9827H77.5432V20.1939H81.7903C82.3212 20.1939 82.4539 19.7955 82.4539 19.6627C82.4539 19.5299 82.3212 19.1314 81.7903 19.1314H77.0124C76.4815 19.1314 76.216 19.3971 76.216 19.9283V27.8964C76.216 28.4276 76.4815 28.6932 77.0124 28.6932H81.9231C82.4539 28.6932 82.5867 28.2948 82.5867 28.162C82.5867 28.0292 82.4539 27.6308 81.9231 27.6308H77.5432V24.4435H81.5249V24.0451ZM86.8337 24.1779H85.3738V27.7636C85.3738 28.4276 84.9756 28.5604 84.7102 28.5604C84.4447 28.5604 84.0466 28.4276 84.0466 27.7636V19.6627C84.0466 19.1315 84.312 18.8658 84.8429 18.8658H87.0992C88.9573 18.8658 90.4172 19.5299 90.4172 21.5219C90.4172 22.8499 89.4882 23.7795 88.1609 24.0451L90.4172 27.3652C90.5499 27.498 90.55 27.7636 90.55 27.7636C90.55 28.162 90.2845 28.4276 89.8863 28.4276C89.7536 28.4276 89.4882 28.2948 89.3554 28.0292L86.8337 24.1779ZM85.3738 22.9827H86.9665C88.161 22.9827 89.2227 22.5843 89.2227 21.3891C89.2227 20.1939 88.2937 19.9283 87.0992 19.9283H85.5065V22.9827H85.3738ZM23.6583 18.8658C23.2601 18.733 22.862 18.8658 22.7293 19.2643L20.0749 26.4356L18.2168 19.2643C18.084 18.9986 17.8186 18.733 17.5532 18.733C17.2877 18.733 17.0223 18.8658 16.8895 19.2643L15.0314 26.4356L12.377 19.2643C12.2443 18.8658 11.8461 18.733 11.448 18.8658C11.0498 18.9986 10.917 19.397 11.0498 19.7955L14.1024 27.8964C14.2351 28.162 14.3678 28.2948 14.6333 28.4276C15.1641 28.5604 15.695 28.4276 15.8277 27.8964V27.7636L17.4204 21.5219L19.0131 27.7636V27.8964C19.1458 28.4276 19.8094 28.6932 20.2076 28.4276C20.473 28.2948 20.6057 28.162 20.7385 27.8964L23.791 19.7955C24.1892 19.397 24.0565 18.9986 23.6583 18.8658Z" fill="white"/>
<path d="M64.0056 13.9526C63.8729 13.9526 63.7401 13.9526 63.6074 13.9526C63.0765 13.9526 62.5456 13.5542 62.4129 13.023L60.5548 7.17966L58.6967 13.023C58.564 13.5542 58.0331 13.023 57.5022 13.023C56.9713 13.023 56.4404 13.5542 56.3077 13.023L54.4496 7.17966L52.5915 13.023C52.4588 13.5542 51.9279 13.9526 51.397 13.9526C51.2643 13.9526 51.1316 13.9526 50.9988 13.9526C50.3352 13.687 49.9371 13.023 50.2025 12.359L53.2551 2.93C53.3878 2.39879 53.9187 2.93 54.4496 2.93C54.9805 2.93 55.5114 2.39879 55.6441 2.93L57.5022 8.77328L59.3603 2.93C59.4931 2.39879 60.0239 2.93 60.5548 2.93C61.0857 2.93 61.6166 2.39879 61.7493 2.93L64.8019 12.359C65.0673 13.023 64.6692 13.687 64.0056 13.9526ZM50.6007 2.13318C50.468 2.13318 50.3352 2.13318 50.2025 2.13318C49.6716 2.13318 49.1407 2.5316 49.008 3.06281L47.1499 8.90609L45.2918 3.06281C45.1591 2.5316 44.6282 3.06281 44.0973 3.06281C43.5664 3.06281 43.0355 2.5316 42.9028 3.06281L41.0447 8.90609L39.1866 3.06281C39.0539 2.5316 38.523 2.13318 37.9921 2.13318C37.8594 2.13318 37.7266 2.13318 37.5939 2.13318C36.9303 2.39878 36.5322 3.06281 36.7976 3.72682L39.8502 13.1558C39.9829 13.687 40.5138 13.1558 41.0447 13.1558C41.5756 13.1558 42.1065 13.687 42.2392 13.1558L44.0973 7.31247L45.9554 13.1558C46.0881 13.687 46.619 13.1558 47.1499 13.1558C47.6808 13.1558 48.2117 13.687 48.3444 13.1558L51.397 3.72682C51.6625 3.06281 51.2643 2.26598 50.6007 2.13318Z" fill="white"/>
<path d="M60.5547 2C61.0856 2 61.6165 2.3984 61.7492 2.92961C61.8819 3.19522 61.8819 3.46083 61.7492 3.72643L60.5547 7.31209L59.3602 3.72643C59.2275 3.46083 59.2275 3.19522 59.3602 2.92961C59.4929 2.3984 60.0238 2 60.5547 2ZM53.1223 2.92961C52.9896 3.19522 52.9896 3.46083 53.1223 3.72643L54.3168 7.31209L55.5113 3.72643C55.644 3.46083 55.644 3.19522 55.5113 2.92961C55.3786 2.3984 54.8477 2 54.3168 2C53.7859 2 53.255 2.3984 53.1223 2.92961ZM47.1499 13.9522C47.6807 13.9522 48.2116 13.5538 48.3443 13.0226C48.4771 12.757 48.4771 12.4914 48.3443 12.2258L47.1499 8.64012L45.9554 12.2258C45.8227 12.4914 45.8227 12.757 45.9554 13.0226C46.0881 13.5538 46.619 13.9522 47.1499 13.9522ZM40.9119 13.9522C41.4428 13.9522 41.9737 13.5538 42.1065 13.0226C42.2392 12.757 42.2392 12.4914 42.1065 12.2258L40.9119 8.64012L39.7175 12.2258C39.5847 12.4914 39.5847 12.757 39.7175 13.0226C39.9829 13.5538 40.3811 13.9522 40.9119 13.9522Z" fill="white"/>
<path d="M44.0974 2C44.6283 2 45.1592 2.3984 45.2919 2.92961C45.4246 3.19522 45.4246 3.46083 45.2919 3.72643L44.0974 7.31209L42.9029 3.72643C42.7702 3.46083 42.7702 3.19522 42.9029 2.92961C43.0356 2.3984 43.5665 2 44.0974 2ZM57.5022 13.9522C58.0331 13.9522 58.564 13.5538 58.6967 13.0226C58.8294 12.757 58.8294 12.4914 58.6967 12.2258L57.5022 8.64012L56.3077 12.2258C56.175 12.4914 56.175 12.757 56.3077 13.0226C56.4404 13.5538 56.8386 13.9522 57.5022 13.9522Z" fill="white"/>
</svg>
