<svg width="102" height="30" viewBox="0 0 102 30" fill="none" xmlns="http://www.w3.org/2000/svg">
<g clip-path="url(#clip0_3539_126)">
<g opacity="0.5">
<path opacity="0.5" d="M85.2072 29.3492L82.1545 17.6626L88.127 28.154L87.9943 28.2868C87.198 28.818 86.2689 29.0836 85.3399 29.3492H85.2072ZM83.0836 19.9202L85.4726 28.9508C86.2689 28.6852 87.0652 28.4196 87.7289 28.0212L83.0836 19.9202Z" fill="white"/>
<path opacity="0.5" d="M79.8983 29.3492H79.7656C78.8365 29.0836 78.0402 28.6852 77.1111 28.2868L76.9784 28.154L82.42 18.7251H82.6854V18.9907L79.8983 29.3492ZM77.5093 28.0212C78.1729 28.4196 78.9692 28.6852 79.7656 28.9508L82.1545 19.9203L77.5093 28.0212Z" fill="white"/>
<path opacity="0.5" d="M82.5528 29.6149H82.42V17.5299L85.4727 29.2165H85.3399C84.4109 29.6149 83.4818 29.6149 82.5528 29.6149ZM82.6855 20.0531V29.3493C83.4818 29.3493 84.2782 29.2165 85.0745 29.0837L82.6855 20.0531Z" fill="white"/>
<path opacity="0.5" d="M82.5527 29.6149C81.6237 29.6149 80.6946 29.4821 79.7655 29.2165H79.6328L82.6854 17.5299V29.6149H82.5527ZM80.031 29.0837C80.8273 29.2165 81.6236 29.3493 82.42 29.3493V20.0531L80.031 29.0837Z" fill="white"/>
<path opacity="0.5" d="M87.8617 28.2869L82.42 18.8579L82.5528 18.5923L90.3834 26.4277L90.2506 26.5605C89.587 27.2245 88.7907 27.7557 87.9944 28.2869H87.8617ZM83.3491 19.7875L87.9944 27.8885C88.658 27.4901 89.3216 26.9589 89.8525 26.4277L83.3491 19.7875Z" fill="white"/>
<path opacity="0.5" d="M74.9876 26.5604C74.1913 25.7636 73.6604 24.9668 73.1296 24.17L72.9968 24.0372L82.2873 18.5923L82.42 18.4595L82.5528 18.8579H82.42L74.9876 26.5604ZM73.5277 24.17C73.9259 24.834 74.4568 25.498 74.9876 26.162L81.491 19.6547L73.5277 24.17Z" fill="white"/>
<path opacity="0.5" d="M82.5527 18.9907L72.9968 13.5458L73.1296 13.413C73.6604 12.6162 74.1913 11.8194 74.8549 11.1554L74.9876 11.0226L82.6855 18.7251L82.5527 18.9907ZM73.5277 13.413L81.6237 18.0611L74.9876 11.5538C74.4568 12.085 73.9259 12.749 73.5277 13.413Z" fill="white"/>
<path opacity="0.5" d="M83.349 19.7875L82.5527 18.9907L82.6854 18.8579L82.5527 18.9907L74.8549 11.2882L74.9876 11.1554C75.6512 10.4914 76.4475 9.96016 77.2439 9.42895L77.3766 9.29614L83.349 19.7875ZM75.253 11.2882L81.7564 17.7955L77.1111 9.69455C76.4475 10.2258 75.7839 10.757 75.253 11.2882Z" fill="white"/>
<path opacity="0.5" d="M83.0837 19.9203L77.1112 9.42898L77.2439 9.29617C78.0403 8.76496 78.9693 8.49937 79.8984 8.23376H80.0311L83.0837 19.9203ZM77.5094 9.69458L82.1546 17.7955L79.7656 8.76497C78.9693 8.89777 78.173 9.29617 77.5094 9.69458Z" fill="white"/>
<path opacity="0.5" d="M83.2164 18.9908H82.5528L72.0677 16.2019V16.0691C72.3332 15.1395 72.7314 14.3427 73.1295 13.4131L73.2623 13.2803L83.2164 18.9908ZM72.4659 15.9363L81.491 18.3267L73.395 13.6787C72.9968 14.4755 72.7314 15.1395 72.4659 15.9363Z" fill="white"/>
<path opacity="0.5" d="M82.5528 18.9907H71.6696V18.8579C71.6696 17.9283 71.8023 16.9987 72.0677 16.0691V15.9363L82.8182 18.8579L82.5528 18.9907ZM72.0677 18.7251H81.3583L72.3332 16.3347C72.2004 16.9987 72.0677 17.9283 72.0677 18.7251Z" fill="white"/>
<path opacity="0.5" d="M77.2439 28.2869L77.1111 28.1541C76.3148 27.6229 75.5185 27.0917 74.8549 26.4277L74.7222 26.2949L82.42 18.5923H82.9508L82.6854 18.8579L77.2439 28.2869ZM75.2531 26.4277C75.7839 26.9589 76.4475 27.4901 77.1111 27.8885L81.7564 19.7875L75.2531 26.4277Z" fill="white"/>
<path opacity="0.5" d="M73.2623 24.4356L73.1295 24.3028C72.5986 23.506 72.3332 22.5764 72.0677 21.6467V21.514L82.5528 18.7251H83.2164L82.6855 18.9907L73.2623 24.4356ZM72.4659 21.7796C72.7314 22.5764 72.9968 23.3732 73.395 24.0372L81.491 19.3891L72.4659 21.7796Z" fill="white"/>
<path opacity="0.5" d="M72.2005 21.7795V21.6467C71.9351 20.7171 71.8024 19.7875 71.8024 18.8579V18.7251H83.88L72.2005 21.7795ZM72.0678 18.9907C72.0678 19.7875 72.2005 20.5843 72.3332 21.3811L81.3583 18.9907H72.0678Z" fill="white"/>
<path opacity="0.5" d="M82.1545 19.9203L85.2072 8.23376H85.3399C86.2689 8.49937 87.0652 8.89776 87.9943 9.29617L88.127 9.42898L82.1545 19.9203ZM85.4726 8.76497L83.0836 17.7955L87.7289 9.69458C86.9325 9.29617 86.2689 8.89777 85.4726 8.76497Z" fill="white"/>
<path opacity="0.5" d="M81.7565 19.7875L87.7289 9.29614L87.8617 9.42895C88.658 9.96016 89.4543 10.4914 90.1179 11.1554L90.2506 11.2882L81.7565 19.7875ZM87.9944 9.82736L83.3491 17.9283L89.8525 11.421C89.3216 10.757 88.658 10.2258 87.9944 9.82736Z" fill="white"/>
<path opacity="0.5" d="M90.1178 26.5604L82.5527 18.9907L82.8182 18.7251C83.4818 19.3891 84.1454 19.9203 84.9417 20.3187C85.738 20.7171 86.5344 21.1155 87.4634 21.3811L92.1087 24.0372L91.9759 24.17C91.445 25.0996 90.9142 25.8964 90.1178 26.5604ZM84.5436 20.5843L90.1178 26.162C90.6487 25.6308 91.1796 24.9668 91.5778 24.3028L87.3307 21.7796C86.4016 21.5139 85.6053 21.1155 84.6763 20.7171C84.6763 20.5843 84.5436 20.5843 84.5436 20.5843Z" fill="white"/>
<path opacity="0.5" d="M91.8432 24.4357L86.1362 21.1156L87.3307 21.3812C88.2598 21.6468 89.0561 21.7796 89.9851 21.7796C90.9142 21.7796 91.8432 21.6468 92.6396 21.3812L92.905 21.2484L92.7723 21.514C92.5068 22.4436 92.1087 23.2404 91.7105 24.1701L91.8432 24.4357ZM88.2598 21.9124L91.7105 23.9044C92.1087 23.2404 92.3741 22.5764 92.6396 21.7796C91.8432 21.9124 90.9142 22.0452 90.1179 22.0452C89.4543 22.178 88.9234 22.0452 88.2598 21.9124Z" fill="white"/>
<path opacity="0.5" d="M82.42 20.0532V7.96814H82.5528C83.4818 7.96814 84.4109 8.10095 85.3399 8.36655H85.4727L82.42 20.0532ZM82.6855 8.36655V17.6627L85.0745 8.63215C84.2782 8.49935 83.4818 8.36655 82.6855 8.36655Z" fill="white"/>
<path opacity="0.5" d="M82.6854 20.0532L79.6328 8.36655H79.7655C80.6946 8.10095 81.6237 7.96814 82.5527 7.96814H82.6854V20.0532ZM80.031 8.63215L82.42 17.6627V8.36655C81.6236 8.36655 80.8273 8.49935 80.031 8.63215Z" fill="white"/>
<path opacity="0.5" d="M90.1178 22.178H89.9851V10.093L93.0377 21.7796H92.905C91.9759 22.0452 91.0469 22.178 90.1178 22.178ZM90.2505 12.4835V21.7796C91.0469 21.7796 91.8432 21.6468 92.6395 21.514L90.2505 12.4835Z" fill="white"/>
<path opacity="0.5" d="M92.7723 21.7795L89.7197 10.093L95.6922 20.5843L95.5594 20.7171C94.7631 21.2483 93.8341 21.5139 92.905 21.7795H92.7723ZM90.5161 12.4834L92.905 21.5139C93.7013 21.2483 94.4977 20.9827 95.1613 20.5843L90.5161 12.4834Z" fill="white"/>
<path opacity="0.5" d="M90.2506 22.1779H90.1178C89.1888 22.1779 88.2598 22.0451 87.3307 21.7795H87.198L90.1178 11.0226L90.3833 11.2882V11.421V22.1779H90.2506ZM87.5961 21.5139C88.3925 21.6467 89.1888 21.7795 89.9851 21.7795V12.4834L87.5961 21.5139Z" fill="white"/>
<path opacity="0.5" d="M87.4635 21.7795H87.3307C86.4017 21.5139 85.6053 21.1155 84.6763 20.7171L84.5436 20.5843L90.5161 10.093L87.4635 21.7795ZM84.9417 20.4515C85.6053 20.8499 86.4017 21.1155 87.198 21.3811L89.587 12.3506L84.9417 20.4515Z" fill="white"/>
<path opacity="0.5" d="M84.8091 20.7172L84.6764 20.5844C83.88 20.0532 83.0837 19.522 82.4201 18.858L82.2874 18.7252L90.7816 10.2258L84.8091 20.7172ZM82.8183 18.858C83.3491 19.3892 84.0128 19.9204 84.8091 20.3188L89.4544 12.2179L82.8183 18.858Z" fill="white"/>
<path opacity="0.5" d="M100.47 14.2098L89.9851 11.421H89.8524V11.0226H89.9851H100.736V11.1554C100.736 12.085 100.603 13.0146 100.337 13.9442L100.47 14.2098ZM91.3123 11.421L100.337 13.8114C100.47 13.0146 100.603 12.2178 100.603 11.421H91.3123Z" fill="white"/>
<path opacity="0.5" d="M90.1179 11.5539L89.8524 11.4211L92.6396 0.796875H92.7723C93.7013 1.06248 94.4977 1.46089 95.4267 1.8593L95.5594 1.99209L90.1179 11.5539ZM93.0377 1.19529L90.6487 10.2258L95.294 2.1249C94.4977 1.72649 93.7013 1.46089 93.0377 1.19529Z" fill="white"/>
<path opacity="0.5" d="M89.9851 11.8194V0.398438H90.1178C91.0469 0.398438 91.9759 0.531244 92.905 0.796848H93.0377L90.2505 11.2882L89.9851 11.8194ZM90.2505 0.796848V10.093L92.6395 1.06245C91.8432 0.929646 91.0469 0.796848 90.2505 0.796848Z" fill="white"/>
<path opacity="0.5" d="M90.2506 12.4834L87.198 0.796848H87.3307C88.2598 0.531244 89.1888 0.398438 90.1179 0.398438H90.2506V12.4834ZM87.5961 1.06245L89.9851 10.093V0.796848C89.1888 0.796848 88.2597 0.929646 87.5961 1.06245Z" fill="white"/>
<path opacity="0.5" d="M89.587 11.9522L95.4268 1.85925L95.5595 1.99204C96.3558 2.52325 97.1522 3.05446 97.8158 3.71848L97.9485 3.85129L90.2506 11.5538L89.587 11.9522ZM95.5595 2.25766L90.9142 10.3586L97.4176 3.85129C96.8867 3.18728 96.2231 2.65607 95.5595 2.25766Z" fill="white"/>
<path opacity="0.5" d="M90.1179 11.421H89.7197L97.683 3.45288L97.8158 3.58569C98.4794 4.2497 99.0102 5.04651 99.5411 5.84333L99.6739 5.97612L90.1179 11.421ZM97.683 3.98408L91.0469 10.6242L99.143 5.97612C98.7448 5.1793 98.2139 4.51529 97.683 3.98408Z" fill="white"/>
<path opacity="0.5" d="M99.4084 16.8658L89.9851 11.421H89.8524V11.0226L90.1179 11.1554L100.603 13.9442V14.077C100.337 15.0066 99.9392 15.8034 99.5411 16.733L99.4084 16.8658ZM91.1796 11.8194L99.2756 16.4674C99.6738 15.8034 99.9392 15.0066 100.205 14.2098L91.1796 11.8194Z" fill="white"/>
<path opacity="0.5" d="M89.587 11.4211L89.9852 11.1554L100.47 8.36658V8.49939C100.736 9.42901 100.868 10.3586 100.868 11.2882V11.4211H89.587ZM100.337 8.76499L91.3124 11.1554H100.603C100.603 10.3586 100.47 9.56181 100.337 8.76499Z" fill="white"/>
<path opacity="0.5" d="M88.9235 11.8194L99.4084 5.84326L99.5411 5.97605C100.072 6.77287 100.337 7.70249 100.603 8.63211V8.76492L88.9235 11.8194ZM99.2757 6.10886L91.1797 10.757L100.205 8.36651C99.9393 7.56969 99.6739 6.90568 99.2757 6.10886Z" fill="white"/>
<path opacity="0.5" d="M90.9142 12.2178L82.42 3.71848L82.5528 3.58568C83.2164 2.92167 84.0127 2.39046 84.809 1.85925L84.9417 1.72644L90.9142 12.2178ZM82.8182 3.71848L89.3216 10.2258L84.6763 2.12485C84.0127 2.65606 83.3491 3.18727 82.8182 3.71848Z" fill="white"/>
<path opacity="0.5" d="M90.5161 12.4835L84.5436 1.99209L84.6763 1.8593C85.4726 1.32809 86.4017 1.06248 87.3307 0.796875H87.4635V0.929685L90.5161 12.4835ZM84.9417 2.1249L89.587 10.2258L87.198 1.19529C86.4017 1.46089 85.7381 1.72649 84.9417 2.1249Z" fill="white"/>
<path opacity="0.5" d="M89.9851 11.421C89.3215 10.757 88.6579 10.2258 87.8616 9.8274C87.0652 9.42899 86.2689 9.03058 85.3398 8.76497L80.6946 6.10893L80.8273 5.97612C81.3582 5.1793 81.8891 4.38249 82.5527 3.71848L82.6854 3.58569L90.3833 11.2882L89.9851 11.421ZM85.3398 8.36656C86.2689 8.63217 87.0652 9.03058 87.9943 9.42899C87.9943 9.42899 88.127 9.42899 88.127 9.5618L82.5527 3.98408C82.0218 4.51529 81.4909 5.17932 81.0927 5.84333L85.3398 8.36656Z" fill="white"/>
<path opacity="0.5" d="M86.4016 9.03052L85.2071 8.76492C84.2781 8.49931 83.349 8.3665 82.5527 8.3665C81.6236 8.3665 80.6946 8.49931 79.8983 8.76492L79.6328 8.89773L79.7655 8.63211C80.031 7.70249 80.4292 6.90567 80.8273 5.97605L80.96 5.84326L86.4016 9.03052ZM80.96 6.10886C80.5619 6.77288 80.2964 7.4369 80.031 8.23371C80.8273 8.10091 81.7564 7.96809 82.5527 7.96809C83.2163 7.96809 83.7472 7.9681 84.2781 8.1009L80.96 6.10886Z" fill="white"/>
<path opacity="0.5" d="M97.6829 19.1235L89.9851 11.421L90.1178 11.1554L99.6738 16.6003L99.541 16.7331C99.0102 17.5299 98.4793 18.3267 97.6829 19.1235ZM91.0469 12.085L97.6829 18.7251C98.2138 18.1939 98.7447 17.5299 99.1429 16.7331L91.0469 12.085Z" fill="white"/>
<path opacity="0.5" d="M95.4268 20.7172L89.4543 10.2258L97.9485 18.7252L97.8158 18.858C97.1522 19.522 96.3558 20.0532 95.5595 20.5844L95.4268 20.7172ZM90.9143 12.2179L95.5595 20.3188C96.2231 19.9204 96.8867 19.3892 97.4176 18.858L90.9143 12.2179Z" fill="white"/>
</g>
<path d="M8.62689 18.8583H7.16696V13.9446L4.51253 17.1319C4.37981 17.2647 4.24708 17.2647 4.11436 17.1319L1.45993 13.9446V18.8583H0V12.0854C0 11.687 0.398162 11.2886 0.796326 11.2886C1.06177 11.2886 1.32721 11.4214 1.45993 11.687L4.24708 15.1398L7.16696 11.5542C7.29968 11.4214 7.56511 11.2886 7.69784 11.2886C8.096 11.2886 8.49417 11.687 8.49417 12.0854V18.8583H8.62689Z" fill="white"/>
<path d="M46.4525 18.8578H48.1779L49.1069 16.8658H52.425L53.4868 18.8578H55.2121L51.4959 11.6865C51.3632 11.4209 51.0978 11.2881 50.8323 11.2881C50.5669 11.2881 50.3014 11.4209 50.1687 11.6865L46.4525 18.8578ZM50.6996 13.4129L51.7614 15.5378H49.6378L50.6996 13.4129Z" fill="white"/>
<path d="M20.7045 18.8579H19.6427L14.5993 13.8114V18.8579H13.1394V12.085C13.1394 11.6866 13.5376 11.2882 13.9357 11.2882C14.2012 11.2882 14.3339 11.421 14.5993 11.5538L19.2446 16.2019V11.6866C19.2446 11.421 19.51 11.1554 19.7754 11.1554H20.3063C20.5718 11.1554 20.8372 11.421 20.8372 11.6866V18.8579H20.7045Z" fill="white"/>
<path d="M26.9425 11.4209C26.4116 11.2881 25.8807 11.2881 25.0844 11.2881H22.9609C22.5627 11.2881 22.1646 11.6865 22.1646 12.0849V18.8578H24.6863C25.4826 18.8578 26.1462 18.725 26.8098 18.5922C28.8006 18.061 29.8624 16.733 29.8624 15.0066C29.8624 13.1473 28.8006 11.9521 26.9425 11.4209ZM26.5444 17.2642C26.0135 17.397 25.4826 17.397 24.819 17.397H23.8899V12.7489H25.0844C25.748 12.7489 26.2789 12.7489 26.6771 12.8817C27.8716 13.1473 28.4025 13.8113 28.4025 15.0066C28.2697 16.069 27.7388 16.8658 26.5444 17.2642Z" fill="white"/>
<path d="M60.521 15.8035C61.7155 15.4051 62.2464 14.741 62.2464 13.5458C62.2464 12.085 61.0519 11.1554 59.1938 11.1554H56.6721C56.2739 11.1554 55.8757 11.5538 55.8757 11.9522V18.7251H57.3357V15.9363H58.6629L60.521 18.7251H62.3791L60.521 15.8035ZM57.4684 14.6082V12.749H59.3265C59.8574 12.749 60.6537 12.8818 60.6537 13.6786C60.6537 14.077 60.521 14.6082 59.0611 14.6082H57.4684V14.6082Z" fill="white"/>
<path d="M10.0868 18.8578H11.5468V11.8193C11.5468 11.5537 11.2813 11.2881 11.0159 11.2881H10.485C10.2195 11.2881 9.9541 11.5537 9.9541 11.8193V18.8578H10.0868Z" fill="white"/>
<path d="M45.5234 18.8578H43.9308V15.6706H39.9492V18.8578H38.4893V11.8193C38.4893 11.5537 38.7547 11.2881 39.0201 11.2881H39.551C39.8165 11.2881 40.0819 11.5537 40.0819 11.8193V14.3425H44.0635V11.8193C44.0635 11.5537 44.329 11.2881 44.5944 11.2881H45.1253C45.3907 11.2881 45.6562 11.5537 45.6562 11.8193V18.8578H45.5234Z" fill="white"/>
<path d="M34.2422 14.3426C33.1804 14.2098 32.5168 14.077 32.5168 13.413C32.5168 12.8818 33.0477 12.6162 33.9767 12.6162C35.0385 12.6162 35.8348 13.0146 36.233 13.1474C36.3657 13.1474 36.3657 13.1474 36.3657 13.0146L36.7639 12.085C36.7639 12.085 36.7639 12.085 36.7639 11.9522C36.7639 11.8194 36.7639 11.8194 36.6312 11.8194C35.8348 11.421 34.7731 11.1554 33.844 11.1554C31.9859 11.1554 30.9241 11.9522 30.9241 13.413C30.9241 14.077 31.1896 14.6082 31.5877 15.0066C32.1186 15.405 33.0477 15.5378 33.844 15.6706C34.9058 15.8034 35.5694 15.9362 35.5694 16.4674C35.5694 17.3971 34.3749 17.3971 33.844 17.3971C33.0477 17.3971 32.2513 17.1314 31.5877 16.733L31.455 16.6002L31.3223 16.733L30.7914 17.6626L30.6587 18.0611L30.7914 18.1939C31.3223 18.5923 32.2514 18.9907 33.7113 18.9907C35.7021 18.9907 37.0293 18.061 37.0293 16.6002C37.162 14.741 35.5694 14.4754 34.2422 14.3426Z" fill="white"/>
<path d="M68.7497 15.405C68.7497 15.5378 68.617 15.6706 68.4843 15.6706H65.1663V17.397H69.1479V18.8578H63.5736V12.0849C63.5736 11.6865 63.9718 11.2881 64.3699 11.2881H68.7497C68.8825 11.2881 69.0152 11.4209 69.0152 11.5537V12.3505C69.0152 12.4833 68.8825 12.6161 68.7497 12.6161H65.1663V14.2098H68.4843C68.617 14.2098 68.7497 14.3426 68.7497 14.4754V15.405Z" fill="white"/>
<path d="M82.5528 29.8805C76.4476 29.8805 71.4042 24.9668 71.4042 18.7251C71.4042 12.6162 76.3149 7.5697 82.5528 7.5697C85.4727 7.5697 88.2598 8.76491 90.3834 10.7569L89.7197 11.421C87.8616 9.56173 85.2072 8.49931 82.5528 8.49931C76.9785 8.49931 72.466 13.0146 72.466 18.5923C72.466 24.17 76.9785 28.6853 82.5528 28.6853C87.198 28.6853 91.3124 25.498 92.3742 20.9827L93.3032 21.2483C92.1087 26.4276 87.7289 29.8805 82.5528 29.8805Z" fill="white"/>
<path d="M82.5528 19.7876C82.022 19.7876 81.6238 19.3892 81.6238 18.858C81.6238 18.3268 82.022 17.9283 82.5528 17.9283C83.0837 17.9283 83.4819 18.3268 83.4819 18.858C83.4819 19.3892 83.0837 19.7876 82.5528 19.7876ZM82.5528 18.7252C82.5528 18.7252 82.5528 18.858 82.5528 18.7252C82.5528 18.858 82.5528 18.858 82.5528 18.7252C82.5528 18.858 82.5528 18.858 82.5528 18.7252C82.5528 18.7252 82.5528 18.858 82.5528 18.7252Z" fill="white"/>
<path d="M90.1179 22.3108C87.198 22.3108 84.4108 21.2484 82.42 19.1235L83.0836 18.4595C84.9417 20.3187 87.4634 21.3811 90.1179 21.3811C91.0469 21.3811 91.976 21.2483 92.7723 20.9827C97.1521 19.7875 100.205 15.8035 100.205 11.1554C100.205 5.5777 95.6921 1.06242 90.1179 1.06242C85.4726 1.06242 81.3582 4.24968 80.2965 8.76495L79.3674 8.49935C80.5619 3.45287 85.0745 0 90.1179 0C96.223 0 101.266 4.91369 101.266 11.1554C101.266 16.2019 97.9484 20.5843 93.0377 21.9123C92.1087 22.178 91.0469 22.3108 90.1179 22.3108Z" fill="white"/>
<path d="M90.1179 12.0851C89.587 12.0851 89.3215 11.6867 89.3215 11.2883C89.3215 10.757 89.7197 10.4915 90.1179 10.4915C90.6488 10.4915 90.9142 10.8899 90.9142 11.2883C90.9142 11.6867 90.5161 12.0851 90.1179 12.0851ZM90.1179 11.1555C89.9852 11.1555 89.9852 11.1555 90.1179 11.1555C89.9852 11.2883 90.1179 11.4211 90.1179 11.4211C90.1179 11.2883 90.2506 11.2883 90.1179 11.1555C90.1179 11.1555 90.2506 11.1555 90.1179 11.1555Z" fill="white"/>
<path d="M89.8144 10.927L82.2396 18.5602L82.8989 19.2152L90.4736 11.582L89.8144 10.927Z" fill="white"/>
</g>
<defs>
<clipPath id="clip0_3539_126">
<rect width="102" height="30" fill="white"/>
</clipPath>
</defs>
</svg>
