<svg width="102" height="30" fill="none" xmlns="http://www.w3.org/2000/svg"><g clip-path="url(#clip0_3539_126)" fill="#fff"><g opacity=".5"><path opacity=".5" d="M85.207 29.35l-3.052-11.687 5.972 10.491-.133.133c-.796.531-1.725.797-2.654 1.062h-.133zm-2.123-9.43l2.389 9.03c.796-.265 1.592-.53 2.256-.929l-4.645-8.1z"/><path opacity=".5" d="M79.898 29.35h-.132c-.93-.266-1.726-.665-2.655-1.063l-.133-.133 5.442-9.429h.265v.266l-2.787 10.358zm-2.388-1.33c.664.399 1.46.664 2.257.93l2.388-9.03-4.645 8.1z"/><path opacity=".5" d="M82.553 29.615h-.133V17.53l3.053 11.686h-.133c-.93.399-1.858.399-2.787.399zm.133-9.562v9.296c.796 0 1.592-.133 2.388-.265l-2.388-9.03z"/><path opacity=".5" d="M82.553 29.615c-.93 0-1.858-.133-2.787-.398h-.133l3.052-11.687v12.085h-.132zm-2.522-.531c.796.133 1.593.265 2.389.265v-9.296l-2.389 9.03z"/><path opacity=".5" d="M87.862 28.287l-5.442-9.43.133-.265 7.83 7.836-.132.133c-.664.663-1.46 1.195-2.257 1.726h-.132zm-4.513-8.5l4.645 8.102c.664-.399 1.328-.93 1.859-1.461l-6.504-6.64z"/><path opacity=".5" d="M74.988 26.56c-.797-.796-1.328-1.593-1.858-2.39l-.133-.133 9.29-5.445.133-.133.133.399h-.133l-7.432 7.702zm-1.46-2.39c.398.664.929 1.328 1.46 1.992l6.503-6.507-7.963 4.515z"/><path opacity=".5" d="M82.553 18.99l-9.556-5.444.133-.133c.53-.797 1.061-1.594 1.725-2.258l.133-.132 7.698 7.702-.133.266zm-9.025-5.577l8.096 4.648-6.636-6.507a10.032 10.032 0 00-1.46 1.859z"/><path opacity=".5" d="M83.349 19.788l-.796-.797.132-.133-.132.133-7.698-7.703.133-.133c.663-.664 1.46-1.195 2.256-1.726l.133-.133 5.972 10.492zm-8.096-8.5l6.503 6.508-4.645-8.101c-.663.53-1.327 1.062-1.858 1.593z"/><path opacity=".5" d="M83.084 19.92L77.11 9.43l.133-.133c.796-.531 1.725-.797 2.654-1.062h.133l3.053 11.686zM77.509 9.695l4.646 8.1-2.39-9.03c-.796.133-1.592.531-2.256.93z"/><path opacity=".5" d="M83.216 18.99h-.663l-10.485-2.788v-.133c.265-.93.663-1.726 1.061-2.656l.133-.133 9.954 5.71zm-10.75-3.054l9.025 2.39-8.096-4.647c-.398.796-.664 1.46-.93 2.257z"/><path opacity=".5" d="M82.553 18.99H71.67v-.132c0-.93.132-1.86.398-2.789v-.133l10.75 2.922-.265.133zm-10.485-.265h9.29l-9.025-2.39c-.133.664-.265 1.593-.265 2.39z"/><path opacity=".5" d="M77.244 28.287l-.133-.133c-.796-.531-1.593-1.062-2.256-1.726l-.133-.133 7.698-7.703h.53l-.265.266-5.441 9.429zm-1.99-1.86a10.02 10.02 0 001.857 1.462l4.645-8.101-6.503 6.64z"/><path opacity=".5" d="M73.262 24.436l-.133-.133c-.53-.797-.796-1.727-1.061-2.656v-.133l10.485-2.789h.663l-.53.266-9.424 5.445zm-.796-2.656c.265.796.53 1.593.929 2.257l8.096-4.648-9.025 2.39z"/><path opacity=".5" d="M72.2 21.78v-.133a10.14 10.14 0 01-.398-2.79v-.132H83.88L72.2 21.78zm-.132-2.79c0 .798.133 1.594.265 2.391l9.025-2.39h-9.29z"/><path opacity=".5" d="M82.154 19.92l3.053-11.686h.133c.929.265 1.725.664 2.654 1.062l.133.133-5.972 10.491zm3.319-11.155l-2.39 9.03 4.646-8.1c-.796-.399-1.46-.797-2.256-.93z"/><path opacity=".5" d="M81.757 19.788l5.972-10.492.133.133c.796.531 1.592 1.062 2.256 1.726l.133.133-8.495 8.5zm6.237-9.96l-4.645 8.1 6.504-6.507a6.987 6.987 0 00-1.859-1.594z"/><path opacity=".5" d="M90.118 26.56l-7.565-7.57.265-.265c.664.664 1.327 1.195 2.124 1.594.796.398 1.592.797 2.521 1.062l4.646 2.656-.133.133c-.531.93-1.062 1.726-1.858 2.39zm-5.574-5.976l5.574 5.578a10.028 10.028 0 001.46-1.86L87.33 21.78c-.93-.266-1.726-.665-2.655-1.063 0-.133-.132-.133-.132-.133z"/><path opacity=".5" d="M91.843 24.436l-5.707-3.32 1.195.265c.929.266 1.725.399 2.654.399.93 0 1.858-.133 2.655-.399l.265-.133-.133.266c-.265.93-.663 1.726-1.062 2.656l.133.266zm-3.583-2.524l3.45 1.992c.399-.664.664-1.328.93-2.124-.797.132-1.726.265-2.522.265-.664.133-1.195 0-1.858-.133zm-5.84-1.859V7.968h.133c.929 0 1.858.133 2.787.399h.133L82.42 20.053zm.266-11.686v9.296l2.388-9.03c-.796-.134-1.592-.266-2.388-.266z"/><path opacity=".5" d="M82.685 20.053L79.633 8.367h.133a10.083 10.083 0 012.787-.399h.132v12.085zm-2.654-11.42l2.389 9.03V8.367c-.796 0-1.593.132-2.389.265zm10.087 13.545h-.133V10.093l3.053 11.687h-.133c-.93.265-1.858.398-2.787.398zm.133-9.695v9.297c.796 0 1.592-.133 2.388-.266l-2.388-9.03z"/><path opacity=".5" d="M92.772 21.78L89.72 10.092l5.972 10.491-.133.133c-.796.531-1.725.797-2.654 1.063h-.133zm-2.256-9.297l2.389 9.03c.796-.265 1.593-.53 2.256-.929l-4.645-8.1z"/><path opacity=".5" d="M90.25 22.178h-.132c-.93 0-1.858-.133-2.787-.399h-.133l2.92-10.756.265.265v10.89h-.132zm-2.654-.664c.796.133 1.593.265 2.39.265v-9.296l-2.39 9.03z"/><path opacity=".5" d="M87.463 21.78h-.132c-.93-.266-1.726-.665-2.655-1.063l-.132-.133 5.972-10.491-3.053 11.686zm-2.521-1.329c.663.399 1.46.665 2.256.93l2.389-9.03-4.645 8.1z"/><path opacity=".5" d="M84.81 20.717l-.134-.133c-.796-.53-1.592-1.062-2.256-1.726l-.133-.133 8.495-8.5-5.973 10.492zm-1.992-1.859a7.731 7.731 0 001.991 1.46l4.645-8.1-6.636 6.64z"/><path opacity=".5" d="M100.47 14.21l-10.485-2.79h-.133v-.398h10.884v.132c0 .93-.133 1.86-.399 2.79l.133.265zm-9.158-2.789l9.025 2.39c.133-.796.266-1.593.266-2.39h-9.29z"/><path opacity=".5" d="M90.118 11.554l-.266-.133L92.64.797h.132c.93.265 1.726.664 2.655 1.062l.132.133-5.441 9.562zm2.92-10.359l-2.39 9.03 4.646-8.1c-.796-.399-1.593-.664-2.256-.93z"/><path opacity=".5" d="M89.985 11.82V.397h.133c.929 0 1.858.133 2.787.399h.133L90.25 11.288l-.266.531zM90.251.796v9.296l2.388-9.03C91.843.93 91.047.796 90.251.796z"/><path opacity=".5" d="M90.25 12.483L87.199.797h.133a10.033 10.033 0 012.786-.399h.133v12.085zm-2.654-11.42l2.39 9.03V.797c-.797 0-1.726.133-2.39.265z"/><path opacity=".5" d="M89.587 11.952l5.84-10.093.132.133c.797.531 1.593 1.062 2.257 1.726l.132.133-7.697 7.703-.664.398zm5.972-9.694l-4.645 8.1 6.504-6.507a6.986 6.986 0 00-1.859-1.593z"/><path opacity=".5" d="M90.118 11.421h-.398l7.963-7.968.133.133c.663.664 1.194 1.46 1.725 2.257l.133.133-9.556 5.445zm7.565-7.437l-6.636 6.64 8.096-4.648a7.737 7.737 0 00-1.46-1.992z"/><path opacity=".5" d="M99.408 16.866l-9.423-5.445h-.133v-.398l.266.132 10.485 2.79v.132c-.266.93-.664 1.726-1.062 2.656l-.133.133zm-8.228-5.047l8.096 4.648c.398-.664.663-1.46.929-2.257l-9.025-2.39z"/><path opacity=".5" d="M89.587 11.421l.398-.266 10.485-2.788v.132c.266.93.398 1.86.398 2.79v.132H89.587zm10.75-2.656l-9.025 2.39h9.291c0-.796-.133-1.593-.266-2.39z"/><path opacity=".5" d="M88.924 11.82l10.484-5.977.133.133c.531.797.796 1.726 1.062 2.656v.133l-11.68 3.054zm10.352-5.711l-8.096 4.648 9.025-2.39a16.235 16.235 0 00-.93-2.258z"/><path opacity=".5" d="M90.914 12.218l-8.494-8.5.133-.132c.663-.664 1.46-1.196 2.256-1.727l.133-.133 5.972 10.492zm-8.096-8.5l6.504 6.508-4.646-8.101c-.663.531-1.327 1.062-1.858 1.593z"/><path opacity=".5" d="M90.516 12.483l-5.972-10.49.132-.134c.797-.53 1.726-.797 2.655-1.062h.132V.93l3.053 11.553zM84.942 2.125l4.645 8.1-2.389-9.03a16.19 16.19 0 00-2.256.93z"/><path opacity=".5" d="M89.985 11.421c-.663-.664-1.327-1.195-2.123-1.594-.797-.398-1.593-.796-2.522-1.062l-4.645-2.656.132-.133c.531-.797 1.062-1.594 1.726-2.258l.132-.132 7.698 7.702-.398.133zM85.34 8.367c.929.265 1.725.664 2.654 1.062 0 0 .133 0 .133.133l-5.574-5.578a10.029 10.029 0 00-1.46 1.86l4.247 2.523z"/><path opacity=".5" d="M86.402 9.03l-1.195-.265c-.929-.266-1.858-.399-2.654-.399-.93 0-1.858.133-2.655.399l-.265.133.133-.266c.265-.93.663-1.726 1.061-2.656l.133-.133 5.442 3.188zM80.96 6.11c-.398.664-.664 1.328-.929 2.125.796-.133 1.725-.266 2.522-.266.663 0 1.194 0 1.725.133L80.96 6.109zm16.723 13.013l-7.698-7.702.133-.266 9.556 5.445-.133.133c-.53.797-1.062 1.594-1.858 2.39zm-6.636-7.038l6.636 6.64a7.737 7.737 0 001.46-1.992l-8.096-4.648z"/><path opacity=".5" d="M95.427 20.717l-5.973-10.491 8.495 8.5-.133.132c-.664.664-1.46 1.195-2.257 1.726l-.132.133zm-4.513-8.5l4.645 8.102c.664-.399 1.328-.93 1.859-1.461l-6.504-6.64z"/></g><path d="M8.627 18.858h-1.46v-4.913l-2.654 3.187c-.133.133-.266.133-.399 0L1.46 13.945v4.913H0v-6.773c0-.398.398-.796.796-.796a.73.73 0 01.664.398l2.787 3.453 2.92-3.586c.133-.133.398-.265.53-.265.399 0 .797.398.797.796v6.773h.133zm37.826 0h1.725l.929-1.992h3.318l1.062 1.992h1.725l-3.716-7.171a.73.73 0 00-.664-.399.73.73 0 00-.663.399l-3.716 7.17zm4.247-5.445l1.061 2.125h-2.123l1.062-2.125zm-29.996 5.445h-1.061l-5.044-5.047v5.047h-1.46v-6.773c0-.398.399-.797.797-.797.265 0 .398.133.663.266l4.646 4.648v-4.515c0-.266.265-.532.53-.532h.531c.266 0 .531.266.531.532v7.17h-.133zm6.238-7.438c-.53-.132-1.061-.132-1.858-.132h-2.123c-.398 0-.796.399-.796.797v6.773h2.521c.797 0 1.46-.133 2.124-.266 1.99-.531 3.052-1.859 3.052-3.585 0-1.86-1.061-3.055-2.92-3.586zm-.398 5.844c-.53.133-1.061.133-1.725.133h-.93v-4.648h1.195c.664 0 1.195 0 1.593.133 1.195.265 1.726.93 1.726 2.125-.133 1.062-.664 1.859-1.859 2.257zm33.977-1.461c1.194-.398 1.725-1.062 1.725-2.257 0-1.461-1.194-2.39-3.052-2.39h-2.522c-.398 0-.796.398-.796.796v6.773h1.46v-2.789h1.327l1.858 2.79h1.858l-1.858-2.922zm-3.053-1.195V12.75h1.858c.531 0 1.328.133 1.328.93 0 .398-.133.93-1.593.93h-1.593zm-47.381 4.25h1.46v-7.039c0-.265-.266-.53-.531-.53h-.531c-.265 0-.53.265-.53.53v7.039h.132zm35.436 0h-1.592V15.67h-3.982v3.187h-1.46v-7.039c0-.265.266-.53.531-.53h.531c.265 0 .53.265.53.53v2.523h3.982V11.82c0-.265.266-.53.531-.53h.531c.266 0 .531.265.531.53v7.039h-.133zm-11.281-4.515c-1.062-.133-1.725-.266-1.725-.93 0-.531.53-.797 1.46-.797 1.062 0 1.858.399 2.256.531.133 0 .133 0 .133-.132l.398-.93v-.133c0-.133 0-.133-.133-.133a6.62 6.62 0 00-2.787-.664c-1.858 0-2.92.797-2.92 2.258a2.2 2.2 0 00.664 1.594c.53.398 1.46.53 2.256.664 1.062.132 1.725.265 1.725.796 0 .93-1.194.93-1.725.93-.796 0-1.593-.266-2.256-.664l-.133-.133-.133.133-.53.93-.133.398.132.133c.531.398 1.46.797 2.92.797 1.991 0 3.318-.93 3.318-2.39.133-1.86-1.46-2.126-2.787-2.258zm34.508 1.062a.286.286 0 01-.266.266h-3.318v1.726h3.982v1.46h-5.574v-6.772c0-.399.398-.797.796-.797h4.38c.132 0 .265.133.265.266v.796a.286.286 0 01-.265.266h-3.584v1.594h3.318c.133 0 .266.133.266.265v.93zM82.553 29.88c-6.105 0-11.149-4.913-11.149-11.155 0-6.109 4.91-11.155 11.149-11.155 2.92 0 5.707 1.195 7.83 3.187l-.663.664c-1.858-1.86-4.513-2.922-7.167-2.922-5.575 0-10.087 4.516-10.087 10.093 0 5.578 4.513 10.093 10.087 10.093 4.645 0 8.76-3.187 9.821-7.702l.93.265c-1.195 5.18-5.575 8.633-10.751 8.633z"/><path d="M82.553 19.788a.907.907 0 01-.93-.93c0-.531.399-.93.93-.93.53 0 .929.399.929.93s-.398.93-.93.93zm0-1.063s0 .133 0 0c0 .133 0 .133 0 0 0 .133 0 .133 0 0 0 0 0 .133 0 0z"/><path d="M90.118 22.31c-2.92 0-5.707-1.062-7.698-3.186l.664-.665a9.941 9.941 0 007.034 2.922c.929 0 1.858-.133 2.654-.398 4.38-1.195 7.433-5.18 7.433-9.828 0-5.577-4.513-10.093-10.087-10.093-4.645 0-8.76 3.188-9.822 7.703l-.929-.266C80.562 3.453 85.074 0 90.117 0c6.106 0 11.149 4.914 11.149 11.155 0 5.047-3.318 9.43-8.228 10.757a11.04 11.04 0 01-2.92.399z"/><path d="M90.118 12.085c-.531 0-.796-.398-.796-.797 0-.531.398-.796.796-.796.53 0 .796.398.796.796 0 .399-.398.797-.796.797zm0-.93c-.133 0-.133 0 0 0-.133.133 0 .266 0 .266 0-.133.133-.133 0-.265 0 0 .133 0 0 0z"/><path d="M89.814 10.927L82.24 18.56l.659.655 7.575-7.633-.66-.655z"/></g><defs><clipPath id="clip0_3539_126"><path fill="#fff" d="M0 0h102v30H0z"/></clipPath></defs></svg>