<svg width="102" height="30" fill="none" xmlns="http://www.w3.org/2000/svg"><path d="M22.476 20.554h-3.318v-8.101l-2.124 8.234h-2.256l-2.124-8.234v8.234H10V9.266h4.645l1.593 6.108 1.593-6.108h4.645v11.288zm9.556 0h-8.627V9.133h8.627v2.656h-5.176v1.726h4.114v2.523h-4.114v1.86h5.176v2.656zm.796-11.421h4.247c1.593 0 2.92.265 4.247 1.46 1.195 1.196 1.726 2.657 1.726 4.383 0 1.46-.531 3.054-1.593 4.117-1.194 1.195-2.522 1.594-4.114 1.594h-4.513V9.133zm3.982 8.898c.53 0 .796 0 1.194-.266.266-.133.531-.399.797-.797.398-.664.53-1.46.53-2.258 0-.796-.265-1.726-.663-2.39-.531-.664-1.062-.664-1.858-.664h-.398v6.242h.398v.133zm10.352 2.523h-3.584V9.133h3.584v11.42zm7.167-2.258h-3.053l-.663 2.258h-2.92l3.583-11.421h3.716l3.584 11.42h-3.584l-.663-2.257zm-.531-2.39l-.929-3.32-.929 3.32h1.858zm14.069.531c-.266 2.656-2.124 4.382-4.779 4.382-3.45 0-5.308-2.523-5.308-5.71 0-3.32 1.592-6.109 5.176-6.109 2.92 0 4.645 1.726 4.778 4.648l-3.318.133c0-.93-.398-2.125-1.46-2.125-1.593 0-1.593 2.39-1.593 3.453 0 1.195.133 3.054 1.593 3.054 1.062 0 1.46-.93 1.593-1.859l3.317.133zm11.413-1.461c0 3.32-1.99 5.843-5.441 5.843-3.45 0-5.442-2.656-5.442-5.843C68.397 11.523 70.388 9 73.84 9c3.45 0 5.442 2.523 5.442 5.976zm-7.166 0c0 1.062.132 3.187 1.725 3.187s1.725-2.125 1.725-3.187c0-1.062-.132-3.32-1.725-3.32-1.593-.133-1.725 2.125-1.725 3.32zm20.173 5.578H88.97v-8.101l-2.123 8.234H84.59l-2.123-8.234v8.234H79.81V9.266h4.646l1.592 6.108 1.593-6.108h4.645v11.288z" fill="#fff"/></svg>