<svg width="102" height="30" fill="none" xmlns="http://www.w3.org/2000/svg"><path d="M51.755 14.491c0 2.258-.797 3.32-2.522 3.32-1.725 0-2.522-1.062-2.522-3.32V8.25h-2.256v6.507c0 3.32 1.725 5.18 4.778 5.18 3.053 0 4.778-1.86 4.778-5.18V8.25h-2.256v6.241zm12.874-.664c0 2.79-1.726 3.984-3.584 3.984-2.256 0-3.45-1.992-3.45-3.984 0-2.656 1.725-3.984 3.45-3.984 2.124 0 3.584 1.727 3.584 3.984zm-3.053-5.976c-1.593 0-2.92.797-3.849 2.125V8.25h-2.256v16.467h2.256v-6.64c.93 1.328 2.256 1.992 3.716 1.992 1.593 0 3.053-.664 3.982-1.86.929-1.061 1.46-2.655 1.46-4.249 0-1.593-.531-3.054-1.46-4.117a4.663 4.663 0 00-3.849-1.992zm-28.668.532c-.663-.399-1.194-.532-1.858-.532a3.353 3.353 0 00-3.053 1.992V8.117h-2.256v11.42h2.256V13.96c0-1.859.266-3.851 2.522-3.851.398 0 .664 0 .93.133l1.46-1.86zm-10.75-.266v1.86c-.93-1.329-2.257-2.126-3.85-2.126-1.592 0-2.919.664-3.848 1.86-.93 1.062-1.46 2.523-1.46 4.116 0 1.594.53 3.188 1.46 4.25.929 1.195 2.389 1.86 3.982 1.86 1.46 0 2.787-.797 3.716-1.993v1.727c0 1.992-.398 3.984-3.186 3.984-1.99 0-3.318-1.195-3.318-3.055v-.133h-2.123v.133c0 3.055 2.256 5.18 5.441 5.18 4.911 0 5.575-3.586 5.575-6.773V8.25h-2.39v-.133zm-3.451 9.694c-2.256 0-3.45-1.992-3.45-3.984 0-2.656 1.725-3.984 3.45-3.984 2.124 0 3.584 1.594 3.584 3.984-.133 2.79-1.859 3.984-3.584 3.984zm68.883-5.046c-1.062.398-2.124.664-2.92.664-.664 0-1.062-.133-1.328-.531-.265-.399-.265-.93-.132-1.727l.663-2.921c.266-1.461.133-2.524-.398-3.188-.53-.664-1.327-.93-2.389-.93-1.194 0-2.256.4-3.318 1.329-.398-.797-1.327-1.328-2.522-1.328-1.061 0-1.99.398-2.92 1.062C71.928 4.531 70.867 4 69.672 4c-.53 0-1.194.133-1.725.266h-.133l-.398 2.124.53-.265c.797-.266 1.46-.266 1.726 0 .266.265.266.664.133 1.195l-1.46 6.242h2.522l1.061-4.383c.531-2.125 1.46-3.187 2.788-3.187.398 0 .663.133.796.398.265.266.265.797.132 1.594l-1.327 5.578h2.522l1.195-5.18c.265-1.328 1.46-2.39 2.654-2.39.398 0 .663.133.796.398.266.266.266.797.133 1.594l-.664 3.187c-.265 1.328-.132 2.39.531 3.055.664.797 1.726 1.195 3.053 1.195 1.062 0 2.256-.266 3.45-.797l.133-.133.531-2.39-1.062.664zm-44.462-1.328c-.266-.797-.664-1.328-1.195-1.86-.53-.53-1.062-.929-1.858-1.194-.663-.266-1.592-.399-2.522-.399-.928 0-1.725.133-2.521.399-.664.265-1.327.664-1.858 1.195-.531.531-.93 1.195-1.195 1.859a7.525 7.525 0 00-.398 2.39c0 .93.133 1.727.398 2.524.266.797.664 1.328 1.195 1.859.53.531 1.062.93 1.858 1.195.663.266 1.593.398 2.522.398.929 0 1.725-.132 2.521-.398.664-.265 1.327-.664 1.858-1.195.531-.531.93-1.195 1.195-1.86a7.738 7.738 0 00.398-2.523c0-.796-.133-1.726-.398-2.39zm-3.85 6.242c-.397.265-.928.398-1.592.398-.53 0-1.062-.133-1.592-.398-.399-.266-.797-.531-1.062-.93-.266-.398-.531-.797-.664-1.328s-.133-1.062-.133-1.594c0-.53 0-1.062.133-1.46.133-.532.398-.93.664-1.328.265-.399.663-.664 1.062-.93.398-.266.929-.398 1.592-.398.531 0 1.062.132 1.593.398.398.266.796.531 1.062.93.265.398.53.796.663 1.328.133.53.133 1.062.133 1.46 0 .532 0 1.063-.133 1.594-.133.531-.398.93-.663 1.328-.266.399-.664.797-1.062.93z" fill="#fff"/></svg>